<svg xmlns="http://www.w3.org/2000/svg" viewBox="0 0 1200 700" fill="none">
  <!-- Background -->
  <rect width="1200" height="700" fill="#0f1423"/>

  <!-- Grid Pattern -->
  <defs>
    <pattern id="grid" width="40" height="40" patternUnits="userSpaceOnUse">
      <path d="M 40 0 L 0 0 0 40" fill="none" stroke="#06b6d4" stroke-width="0.3" opacity="0.1"/>
    </pattern>
  </defs>
  <rect width="1200" height="700" fill="url(#grid)"/>

  <!-- Sidebar -->
  <rect x="0" y="0" width="220" height="700" fill="#1a1f35"/>
  <rect x="219" y="0" width="1" height="700" fill="#06b6d4" opacity="0.2"/>

  <!-- Logo Area -->
  <rect x="20" y="20" width="180" height="50" rx="8" fill="#06b6d4" opacity="0.1"/>
  <text x="60" y="52" font-family="system-ui" font-size="18" font-weight="bold" fill="#06b6d4">EMBERWARE</text>

  <!-- Sidebar Menu Items -->
  <rect x="15" y="100" width="190" height="40" rx="8" fill="#06b6d4" opacity="0.15"/>
  <circle cx="35" cy="120" r="8" fill="#06b6d4" opacity="0.5"/>
  <text x="55" y="125" font-family="system-ui" font-size="14" fill="#06b6d4">Dashboard</text>

  <circle cx="35" cy="165" r="8" fill="#4b5563" opacity="0.5"/>
  <text x="55" y="170" font-family="system-ui" font-size="14" fill="#9ca3af">Locations</text>

  <circle cx="35" cy="210" r="8" fill="#4b5563" opacity="0.5"/>
  <text x="55" y="215" font-family="system-ui" font-size="14" fill="#9ca3af">Channels</text>

  <circle cx="35" cy="255" r="8" fill="#4b5563" opacity="0.5"/>
  <text x="55" y="260" font-family="system-ui" font-size="14" fill="#9ca3af">Devices</text>

  <circle cx="35" cy="300" r="8" fill="#4b5563" opacity="0.5"/>
  <text x="55" y="305" font-family="system-ui" font-size="14" fill="#9ca3af">Users</text>

  <!-- Status indicators bottom sidebar -->
  <rect x="15" y="620" width="190" height="60" rx="8" fill="#10b981" opacity="0.1"/>
  <circle cx="35" cy="650" r="6" fill="#10b981"/>
  <text x="50" y="645" font-family="system-ui" font-size="11" fill="#10b981">System Online</text>
  <text x="50" y="662" font-family="system-ui" font-size="10" fill="#6b7280">12 Devices Connected</text>

  <!-- Main Content Area Header -->
  <text x="250" y="50" font-family="system-ui" font-size="24" font-weight="bold" fill="white">Location Board</text>
  <text x="250" y="75" font-family="system-ui" font-size="14" fill="#6b7280">Sportbar München - Live View</text>

  <!-- Action Buttons -->
  <rect x="950" y="30" width="100" height="36" rx="8" fill="#06b6d4"/>
  <text x="975" y="54" font-family="system-ui" font-size="13" font-weight="600" fill="white">+ Add Device</text>

  <rect x="1060" y="30" width="110" height="36" rx="8" fill="transparent" stroke="#4b5563"/>
  <text x="1080" y="54" font-family="system-ui" font-size="13" fill="#9ca3af">Save Layout</text>

  <!-- Board Grid Area -->
  <rect x="240" y="95" width="940" height="590" rx="12" fill="#1a1f35" opacity="0.5"/>

  <!-- Portrait TV 1 - Vertical 3 Layout -->
  <g transform="translate(270, 120)">
    <rect width="120" height="200" rx="6" fill="#0f1423" stroke="#06b6d4" stroke-width="2"/>
    <!-- 3 streams stacked -->
    <rect x="5" y="5" width="110" height="60" rx="3" fill="#1e3a5f"/>
    <text x="60" y="40" font-family="system-ui" font-size="9" fill="#06b6d4" text-anchor="middle">beIN SPORTS 1</text>
    <rect x="5" y="70" width="110" height="60" rx="3" fill="#1e3a5f"/>
    <text x="60" y="105" font-family="system-ui" font-size="9" fill="#06b6d4" text-anchor="middle">Sky Sport</text>
    <rect x="5" y="135" width="110" height="60" rx="3" fill="#1e3a5f"/>
    <text x="60" y="170" font-family="system-ui" font-size="9" fill="#06b6d4" text-anchor="middle">DAZN</text>
    <!-- Status -->
    <circle cx="105" cy="15" r="5" fill="#10b981"/>
    <!-- Label -->
    <text x="60" y="220" font-family="system-ui" font-size="11" fill="#9ca3af" text-anchor="middle">TV-01 Portrait</text>
    <text x="60" y="235" font-family="system-ui" font-size="9" fill="#6b7280" text-anchor="middle">Vertical-3</text>
  </g>

  <!-- Portrait TV 2 - Vertical 3 Layout -->
  <g transform="translate(410, 120)">
    <rect width="120" height="200" rx="6" fill="#0f1423" stroke="#06b6d4" stroke-width="2"/>
    <rect x="5" y="5" width="110" height="60" rx="3" fill="#1e3a5f"/>
    <text x="60" y="40" font-family="system-ui" font-size="9" fill="#06b6d4" text-anchor="middle">Bundesliga</text>
    <rect x="5" y="70" width="110" height="60" rx="3" fill="#1e3a5f"/>
    <text x="60" y="105" font-family="system-ui" font-size="9" fill="#06b6d4" text-anchor="middle">Premier League</text>
    <rect x="5" y="135" width="110" height="60" rx="3" fill="#1e3a5f"/>
    <text x="60" y="170" font-family="system-ui" font-size="9" fill="#06b6d4" text-anchor="middle">La Liga</text>
    <circle cx="105" cy="15" r="5" fill="#10b981"/>
    <text x="60" y="220" font-family="system-ui" font-size="11" fill="#9ca3af" text-anchor="middle">TV-02 Portrait</text>
    <text x="60" y="235" font-family="system-ui" font-size="9" fill="#6b7280" text-anchor="middle">Vertical-3</text>
  </g>

  <!-- Large Videowall - 2x2 Grid -->
  <g transform="translate(560, 120)">
    <rect width="340" height="200" rx="6" fill="#0f1423" stroke="#10b981" stroke-width="2"/>
    <!-- 2x2 Grid -->
    <rect x="5" y="5" width="162" height="92" rx="3" fill="#1e3a5f"/>
    <text x="86" y="55" font-family="system-ui" font-size="11" fill="#10b981" text-anchor="middle">Champions League</text>
    <rect x="172" y="5" width="163" height="92" rx="3" fill="#1e3a5f"/>
    <text x="253" y="55" font-family="system-ui" font-size="11" fill="#10b981" text-anchor="middle">Europa League</text>
    <rect x="5" y="102" width="162" height="92" rx="3" fill="#1e3a5f"/>
    <text x="86" y="152" font-family="system-ui" font-size="11" fill="#10b981" text-anchor="middle">Serie A</text>
    <rect x="172" y="102" width="163" height="92" rx="3" fill="#1e3a5f"/>
    <text x="253" y="152" font-family="system-ui" font-size="11" fill="#10b981" text-anchor="middle">Ligue 1</text>
    <circle cx="320" cy="15" r="5" fill="#10b981"/>
    <text x="170" y="220" font-family="system-ui" font-size="11" fill="#9ca3af" text-anchor="middle">Videowall Main</text>
    <text x="170" y="235" font-family="system-ui" font-size="9" fill="#6b7280" text-anchor="middle">Grid 2x2</text>
  </g>

  <!-- Single Screen TV -->
  <g transform="translate(920, 120)">
    <rect width="180" height="110" rx="6" fill="#0f1423" stroke="#4b5563" stroke-width="2"/>
    <rect x="5" y="5" width="170" height="100" rx="3" fill="#1e3a5f"/>
    <text x="90" y="60" font-family="system-ui" font-size="12" fill="#9ca3af" text-anchor="middle">Live Odds Display</text>
    <circle cx="165" cy="15" r="5" fill="#f59e0b"/>
    <text x="90" y="130" font-family="system-ui" font-size="11" fill="#9ca3af" text-anchor="middle">TV-05 Info</text>
    <text x="90" y="145" font-family="system-ui" font-size="9" fill="#6b7280" text-anchor="middle">Single</text>
  </g>

  <!-- Second Row - More TVs -->

  <!-- Portrait TV 3 -->
  <g transform="translate(270, 380)">
    <rect width="120" height="200" rx="6" fill="#0f1423" stroke="#06b6d4" stroke-width="2"/>
    <rect x="5" y="5" width="110" height="60" rx="3" fill="#1e3a5f"/>
    <text x="60" y="40" font-family="system-ui" font-size="9" fill="#06b6d4" text-anchor="middle">Tennis ATP</text>
    <rect x="5" y="70" width="110" height="60" rx="3" fill="#1e3a5f"/>
    <text x="60" y="105" font-family="system-ui" font-size="9" fill="#06b6d4" text-anchor="middle">Tennis WTA</text>
    <rect x="5" y="135" width="110" height="60" rx="3" fill="#1e3a5f"/>
    <text x="60" y="170" font-family="system-ui" font-size="9" fill="#06b6d4" text-anchor="middle">Basketball NBA</text>
    <circle cx="105" cy="15" r="5" fill="#10b981"/>
    <text x="60" y="220" font-family="system-ui" font-size="11" fill="#9ca3af" text-anchor="middle">TV-03 Portrait</text>
    <text x="60" y="235" font-family="system-ui" font-size="9" fill="#6b7280" text-anchor="middle">Vertical-3</text>
  </g>

  <!-- Portrait TV 4 -->
  <g transform="translate(410, 380)">
    <rect width="120" height="200" rx="6" fill="#0f1423" stroke="#06b6d4" stroke-width="2"/>
    <rect x="5" y="5" width="110" height="60" rx="3" fill="#1e3a5f"/>
    <text x="60" y="40" font-family="system-ui" font-size="9" fill="#06b6d4" text-anchor="middle">Hockey NHL</text>
    <rect x="5" y="70" width="110" height="60" rx="3" fill="#1e3a5f"/>
    <text x="60" y="105" font-family="system-ui" font-size="9" fill="#06b6d4" text-anchor="middle">Handball</text>
    <rect x="5" y="135" width="110" height="60" rx="3" fill="#1e3a5f"/>
    <text x="60" y="170" font-family="system-ui" font-size="9" fill="#06b6d4" text-anchor="middle">Volleyball</text>
    <circle cx="105" cy="15" r="5" fill="#10b981"/>
    <text x="60" y="220" font-family="system-ui" font-size="11" fill="#9ca3af" text-anchor="middle">TV-04 Portrait</text>
    <text x="60" y="235" font-family="system-ui" font-size="9" fill="#6b7280" text-anchor="middle">Vertical-3</text>
  </g>

  <!-- Samsung TV with Single Stream -->
  <g transform="translate(560, 380)">
    <rect width="240" height="140" rx="6" fill="#0f1423" stroke="#8b5cf6" stroke-width="2"/>
    <rect x="5" y="5" width="230" height="130" rx="3" fill="#1e3a5f"/>
    <text x="120" y="75" font-family="system-ui" font-size="14" fill="#8b5cf6" text-anchor="middle">Main Event</text>
    <text x="120" y="95" font-family="system-ui" font-size="10" fill="#6b7280" text-anchor="middle">Bayern vs Dortmund</text>
    <circle cx="220" cy="15" r="5" fill="#10b981"/>
    <!-- Samsung Badge -->
    <rect x="10" y="115" width="60" height="16" rx="3" fill="#8b5cf6" opacity="0.3"/>
    <text x="40" y="127" font-family="system-ui" font-size="8" fill="#8b5cf6" text-anchor="middle">Samsung TV</text>
    <text x="120" y="165" font-family="system-ui" font-size="11" fill="#9ca3af" text-anchor="middle">TV-06 Samsung 65"</text>
    <text x="120" y="180" font-family="system-ui" font-size="9" fill="#6b7280" text-anchor="middle">Single - Main Area</text>
  </g>

  <!-- Raspberry Pi Device -->
  <g transform="translate(820, 380)">
    <rect width="180" height="140" rx="6" fill="#0f1423" stroke="#f59e0b" stroke-width="2"/>
    <rect x="5" y="5" width="170" height="130" rx="3" fill="#1e3a5f"/>
    <text x="90" y="60" font-family="system-ui" font-size="11" fill="#f59e0b" text-anchor="middle">Outdoor Display</text>
    <text x="90" y="80" font-family="system-ui" font-size="9" fill="#6b7280" text-anchor="middle">Entrance Screen</text>
    <!-- RPi Badge -->
    <rect x="10" y="115" width="50" height="16" rx="3" fill="#f59e0b" opacity="0.3"/>
    <text x="35" y="127" font-family="system-ui" font-size="8" fill="#f59e0b" text-anchor="middle">RPi 4</text>
    <circle cx="160" cy="15" r="5" fill="#ef4444"/>
    <text x="90" y="165" font-family="system-ui" font-size="11" fill="#9ca3af" text-anchor="middle">TV-07 Outdoor</text>
    <text x="90" y="180" font-family="system-ui" font-size="9" fill="#ef4444" text-anchor="middle">Offline</text>
  </g>

  <!-- Quick Actions Panel -->
  <g transform="translate(1020, 250)">
    <rect width="150" height="280" rx="8" fill="#1a1f35" stroke="#374151" stroke-width="1"/>
    <text x="75" y="25" font-family="system-ui" font-size="12" font-weight="600" fill="white" text-anchor="middle">Quick Actions</text>
    <line x1="10" y1="40" x2="140" y2="40" stroke="#374151"/>

    <!-- Action buttons -->
    <rect x="10" y="55" width="130" height="32" rx="6" fill="#06b6d4" opacity="0.15"/>
    <text x="75" y="76" font-family="system-ui" font-size="11" fill="#06b6d4" text-anchor="middle">Refresh All</text>

    <rect x="10" y="95" width="130" height="32" rx="6" fill="#10b981" opacity="0.15"/>
    <text x="75" y="116" font-family="system-ui" font-size="11" fill="#10b981" text-anchor="middle">Start All Streams</text>

    <rect x="10" y="135" width="130" height="32" rx="6" fill="#f59e0b" opacity="0.15"/>
    <text x="75" y="156" font-family="system-ui" font-size="11" fill="#f59e0b" text-anchor="middle">Reboot Offline</text>

    <rect x="10" y="175" width="130" height="32" rx="6" fill="#8b5cf6" opacity="0.15"/>
    <text x="75" y="196" font-family="system-ui" font-size="11" fill="#8b5cf6" text-anchor="middle">Screenshot All</text>

    <rect x="10" y="215" width="130" height="32" rx="6" fill="#ef4444" opacity="0.15"/>
    <text x="75" y="236" font-family="system-ui" font-size="11" fill="#ef4444" text-anchor="middle">Stop All</text>
  </g>

  <!-- Status Bar Bottom -->
  <rect x="240" y="660" width="940" height="30" rx="0" fill="#1a1f35"/>
  <circle cx="260" cy="675" r="4" fill="#10b981"/>
  <text x="275" y="680" font-family="system-ui" font-size="11" fill="#6b7280">7 Online</text>
  <circle cx="360" cy="675" r="4" fill="#ef4444"/>
  <text x="375" y="680" font-family="system-ui" font-size="11" fill="#6b7280">1 Offline</text>
  <circle cx="460" cy="675" r="4" fill="#f59e0b"/>
  <text x="475" y="680" font-family="system-ui" font-size="11" fill="#6b7280">0 Warning</text>
  <text x="1100" y="680" font-family="system-ui" font-size="11" fill="#4b5563" text-anchor="end">Last sync: 2 sec ago</text>
</svg>
